<?xml version="1.0" standalone="no"?>
<!DOCTYPE svg PUBLIC "-//W3C//DTD SVG 20010904//EN"
 "http://www.w3.org/TR/2001/REC-SVG-20010904/DTD/svg10.dtd">
<svg version="1.0" xmlns="http://www.w3.org/2000/svg"
 width="260.000000pt" height="260.000000pt" viewBox="0 0 260.000000 260.000000"
 preserveAspectRatio="xMidYMid meet">
<metadata>
Created by potrace 1.11, written by Peter Selinger 2001-2013
</metadata>
<g transform="translate(0.000000,260.000000) scale(0.100000,-0.100000)"
fill="#000000" stroke="none">
<path d="M138 2373 c-2 -5 -2 -531 0 -1170 l2 -1163 1230 0 1230 0 0 1170 0
1170 -1229 0 c-677 0 -1231 -3 -1233 -7z m492 -343 c21 -7 48 -27 68 -51 29
-38 32 -47 32 -113 0 -59 -4 -77 -22 -102 -52 -69 -69 -78 -139 -82 -47 -3
-69 0 -80 10 -8 8 -26 22 -41 32 -28 18 -58 93 -58 144 0 63 58 153 105 165
36 9 99 7 135 -3z m1695 -870 l0 -865 -205 0 -205 0 -3 48 c-2 26 -7 47 -13
47 -5 0 -32 -18 -60 -40 -28 -22 -56 -40 -63 -40 -6 0 -29 -10 -51 -21 -57
-31 -248 -32 -315 -2 -25 11 -57 23 -71 26 -14 4 -41 20 -60 37 -19 16 -37 30
-41 30 -11 0 -98 94 -98 106 0 6 -7 17 -15 24 -8 7 -15 19 -15 28 0 8 -7 20
-16 26 -15 11 -26 49 -60 196 -21 90 -14 258 15 380 13 52 28 104 34 115 6 11
19 36 29 55 18 34 79 112 106 134 7 6 23 21 35 33 88 87 290 129 461 95 63
-12 156 -50 156 -64 0 -4 9 -8 20 -8 19 0 20 7 20 258 0 142 3 262 7 266 4 3
97 5 207 4 l201 -3 0 -865z m-1557 -232 l-3 -633 -199 -3 c-153 -2 -201 1
-208 10 -9 15 -11 1242 -1 1251 3 4 98 7 210 7 l203 0 -2 -632z"/>
<path d="M1572 1231 c-22 -17 -44 -40 -48 -53 -4 -13 -13 -27 -19 -33 -41 -32
-60 -269 -30 -368 16 -54 55 -113 94 -142 40 -31 204 -35 257 -6 89 47 84 28
84 308 0 281 10 249 -90 300 -36 18 -61 23 -126 23 -74 0 -85 -3 -122 -29z"/>
</g>
</svg>
